<mxfile host="app.diagrams.net" modified="2022-11-14T10:26:19.647Z" agent="5.0 (Windows NT 10.0; Win64; x64) AppleWebKit/537.36 (KHTML, like Gecko) Chrome/107.0.0.0 Safari/537.36" etag="prycV2r2EY_HlhxI_48h" version="20.5.3" type="github">
  <diagram id="hLEDnQStFR2QxuSpzS8j" name="Страница 1">
    <mxGraphModel dx="2292" dy="882" grid="1" gridSize="10" guides="1" tooltips="1" connect="1" arrows="1" fold="1" page="1" pageScale="1" pageWidth="827" pageHeight="1169" math="0" shadow="0">
      <root>
        <mxCell id="0" />
        <mxCell id="1" parent="0" />
        <mxCell id="HFyNzto8G_94PNSnHy9s-3" style="edgeStyle=orthogonalEdgeStyle;rounded=0;orthogonalLoop=1;jettySize=auto;html=1;" edge="1" parent="1" source="HFyNzto8G_94PNSnHy9s-1">
          <mxGeometry relative="1" as="geometry">
            <mxPoint x="420" y="85" as="targetPoint" />
          </mxGeometry>
        </mxCell>
        <mxCell id="HFyNzto8G_94PNSnHy9s-1" value="Початок&amp;nbsp;" style="rounded=1;whiteSpace=wrap;html=1;" vertex="1" parent="1">
          <mxGeometry x="360" y="10" width="120" height="30" as="geometry" />
        </mxCell>
        <mxCell id="HFyNzto8G_94PNSnHy9s-6" style="edgeStyle=orthogonalEdgeStyle;rounded=0;orthogonalLoop=1;jettySize=auto;html=1;" edge="1" parent="1" source="HFyNzto8G_94PNSnHy9s-4">
          <mxGeometry relative="1" as="geometry">
            <mxPoint x="420" y="155" as="targetPoint" />
          </mxGeometry>
        </mxCell>
        <mxCell id="HFyNzto8G_94PNSnHy9s-4" value="x,xp,xk,dx,a,b,c,F,y" style="shape=parallelogram;perimeter=parallelogramPerimeter;whiteSpace=wrap;html=1;fixedSize=1;" vertex="1" parent="1">
          <mxGeometry x="352" y="90" width="136" height="30" as="geometry" />
        </mxCell>
        <mxCell id="HFyNzto8G_94PNSnHy9s-9" style="edgeStyle=orthogonalEdgeStyle;rounded=0;orthogonalLoop=1;jettySize=auto;html=1;" edge="1" parent="1" source="HFyNzto8G_94PNSnHy9s-7">
          <mxGeometry relative="1" as="geometry">
            <mxPoint x="420" y="225" as="targetPoint" />
          </mxGeometry>
        </mxCell>
        <mxCell id="HFyNzto8G_94PNSnHy9s-7" value="x=xp" style="rounded=0;whiteSpace=wrap;html=1;" vertex="1" parent="1">
          <mxGeometry x="385" y="160" width="70" height="30" as="geometry" />
        </mxCell>
        <mxCell id="HFyNzto8G_94PNSnHy9s-12" style="edgeStyle=orthogonalEdgeStyle;rounded=0;orthogonalLoop=1;jettySize=auto;html=1;" edge="1" parent="1" source="HFyNzto8G_94PNSnHy9s-10">
          <mxGeometry relative="1" as="geometry">
            <mxPoint x="550" y="300" as="targetPoint" />
            <Array as="points">
              <mxPoint x="550" y="255" />
            </Array>
          </mxGeometry>
        </mxCell>
        <mxCell id="HFyNzto8G_94PNSnHy9s-17" style="edgeStyle=orthogonalEdgeStyle;rounded=0;orthogonalLoop=1;jettySize=auto;html=1;" edge="1" parent="1" source="HFyNzto8G_94PNSnHy9s-10" target="HFyNzto8G_94PNSnHy9s-66">
          <mxGeometry relative="1" as="geometry">
            <mxPoint x="460" y="800" as="targetPoint" />
            <Array as="points">
              <mxPoint x="250" y="255" />
              <mxPoint x="250" y="750" />
            </Array>
          </mxGeometry>
        </mxCell>
        <mxCell id="HFyNzto8G_94PNSnHy9s-10" value="x&amp;lt;=xk" style="rhombus;whiteSpace=wrap;html=1;" vertex="1" parent="1">
          <mxGeometry x="380" y="230" width="80" height="50" as="geometry" />
        </mxCell>
        <mxCell id="HFyNzto8G_94PNSnHy9s-14" value="-" style="text;html=1;strokeColor=none;fillColor=none;align=center;verticalAlign=middle;whiteSpace=wrap;rounded=0;" vertex="1" parent="1">
          <mxGeometry x="320" y="230" width="60" height="30" as="geometry" />
        </mxCell>
        <mxCell id="HFyNzto8G_94PNSnHy9s-15" value="+" style="text;html=1;strokeColor=none;fillColor=none;align=center;verticalAlign=middle;whiteSpace=wrap;rounded=0;" vertex="1" parent="1">
          <mxGeometry x="450" y="230" width="60" height="30" as="geometry" />
        </mxCell>
        <mxCell id="HFyNzto8G_94PNSnHy9s-22" style="edgeStyle=orthogonalEdgeStyle;rounded=0;orthogonalLoop=1;jettySize=auto;html=1;" edge="1" parent="1" source="HFyNzto8G_94PNSnHy9s-18" target="HFyNzto8G_94PNSnHy9s-25">
          <mxGeometry relative="1" as="geometry">
            <mxPoint x="660" y="350" as="targetPoint" />
            <Array as="points">
              <mxPoint x="660" y="325" />
            </Array>
          </mxGeometry>
        </mxCell>
        <mxCell id="HFyNzto8G_94PNSnHy9s-24" style="edgeStyle=orthogonalEdgeStyle;rounded=0;orthogonalLoop=1;jettySize=auto;html=1;" edge="1" parent="1" source="HFyNzto8G_94PNSnHy9s-18" target="HFyNzto8G_94PNSnHy9s-26">
          <mxGeometry relative="1" as="geometry">
            <mxPoint x="450" y="420" as="targetPoint" />
            <Array as="points">
              <mxPoint x="450" y="325" />
            </Array>
          </mxGeometry>
        </mxCell>
        <mxCell id="HFyNzto8G_94PNSnHy9s-18" value="c &amp;lt; 0 &amp;amp;&amp;amp; x != 0" style="rhombus;whiteSpace=wrap;html=1;" vertex="1" parent="1">
          <mxGeometry x="500" y="300" width="100" height="50" as="geometry" />
        </mxCell>
        <mxCell id="HFyNzto8G_94PNSnHy9s-25" value="F = -(a * x) - c" style="rounded=0;whiteSpace=wrap;html=1;" vertex="1" parent="1">
          <mxGeometry x="610" y="350" width="100" height="20" as="geometry" />
        </mxCell>
        <mxCell id="HFyNzto8G_94PNSnHy9s-30" style="edgeStyle=orthogonalEdgeStyle;rounded=0;orthogonalLoop=1;jettySize=auto;html=1;" edge="1" parent="1" source="HFyNzto8G_94PNSnHy9s-26">
          <mxGeometry relative="1" as="geometry">
            <mxPoint x="560" y="440" as="targetPoint" />
            <Array as="points">
              <mxPoint x="560" y="415" />
            </Array>
          </mxGeometry>
        </mxCell>
        <mxCell id="HFyNzto8G_94PNSnHy9s-43" style="edgeStyle=orthogonalEdgeStyle;rounded=0;orthogonalLoop=1;jettySize=auto;html=1;" edge="1" parent="1" source="HFyNzto8G_94PNSnHy9s-26">
          <mxGeometry relative="1" as="geometry">
            <mxPoint x="340" y="440" as="targetPoint" />
            <Array as="points">
              <mxPoint x="341" y="415" />
              <mxPoint x="341" y="430" />
              <mxPoint x="340" y="430" />
            </Array>
          </mxGeometry>
        </mxCell>
        <mxCell id="HFyNzto8G_94PNSnHy9s-26" value="c &amp;gt; 0 &amp;amp;&amp;amp; x == 0" style="rhombus;whiteSpace=wrap;html=1;" vertex="1" parent="1">
          <mxGeometry x="398" y="390" width="102" height="50" as="geometry" />
        </mxCell>
        <mxCell id="HFyNzto8G_94PNSnHy9s-37" value="" style="rounded=0;whiteSpace=wrap;html=1;" vertex="1" parent="1">
          <mxGeometry x="500" y="440" width="120" height="20" as="geometry" />
        </mxCell>
        <mxCell id="HFyNzto8G_94PNSnHy9s-38" value="&lt;div&gt;&amp;nbsp; &amp;nbsp; &amp;nbsp; &amp;nbsp; &amp;nbsp; &amp;nbsp; &amp;nbsp; &amp;nbsp; F = (x - a) / -c;&lt;/div&gt;&lt;div&gt;&lt;br&gt;&lt;/div&gt;" style="text;html=1;strokeColor=none;fillColor=none;align=center;verticalAlign=middle;whiteSpace=wrap;rounded=0;" vertex="1" parent="1">
          <mxGeometry x="460" y="440" width="150" height="30" as="geometry" />
        </mxCell>
        <mxCell id="HFyNzto8G_94PNSnHy9s-40" value="+" style="text;html=1;strokeColor=none;fillColor=none;align=center;verticalAlign=middle;whiteSpace=wrap;rounded=0;" vertex="1" parent="1">
          <mxGeometry x="580" y="300" width="60" height="30" as="geometry" />
        </mxCell>
        <mxCell id="HFyNzto8G_94PNSnHy9s-41" value="-" style="text;html=1;strokeColor=none;fillColor=none;align=center;verticalAlign=middle;whiteSpace=wrap;rounded=0;" vertex="1" parent="1">
          <mxGeometry x="450" y="300" width="60" height="30" as="geometry" />
        </mxCell>
        <mxCell id="HFyNzto8G_94PNSnHy9s-44" value="+" style="text;html=1;strokeColor=none;fillColor=none;align=center;verticalAlign=middle;whiteSpace=wrap;rounded=0;" vertex="1" parent="1">
          <mxGeometry x="488" y="390" width="60" height="30" as="geometry" />
        </mxCell>
        <mxCell id="HFyNzto8G_94PNSnHy9s-45" value="-" style="text;html=1;strokeColor=none;fillColor=none;align=center;verticalAlign=middle;whiteSpace=wrap;rounded=0;" vertex="1" parent="1">
          <mxGeometry x="352" y="390" width="60" height="30" as="geometry" />
        </mxCell>
        <mxCell id="HFyNzto8G_94PNSnHy9s-46" value="F = (b * x) / (c - a)" style="rounded=0;whiteSpace=wrap;html=1;" vertex="1" parent="1">
          <mxGeometry x="288" y="440" width="110" height="20" as="geometry" />
        </mxCell>
        <mxCell id="HFyNzto8G_94PNSnHy9s-54" value="" style="endArrow=none;html=1;rounded=0;exitX=0.431;exitY=1.08;exitDx=0;exitDy=0;exitPerimeter=0;" edge="1" parent="1" source="HFyNzto8G_94PNSnHy9s-46">
          <mxGeometry width="50" height="50" relative="1" as="geometry">
            <mxPoint x="470" y="530" as="sourcePoint" />
            <mxPoint x="570" y="460" as="targetPoint" />
            <Array as="points">
              <mxPoint x="335" y="560" />
              <mxPoint x="570" y="560" />
            </Array>
          </mxGeometry>
        </mxCell>
        <mxCell id="HFyNzto8G_94PNSnHy9s-57" value="" style="endArrow=none;html=1;rounded=0;entryX=0.5;entryY=1;entryDx=0;entryDy=0;" edge="1" parent="1" target="HFyNzto8G_94PNSnHy9s-25">
          <mxGeometry width="50" height="50" relative="1" as="geometry">
            <mxPoint x="460" y="560" as="sourcePoint" />
            <mxPoint x="500" y="580" as="targetPoint" />
            <Array as="points">
              <mxPoint x="460" y="600" />
              <mxPoint x="660" y="600" />
            </Array>
          </mxGeometry>
        </mxCell>
        <mxCell id="HFyNzto8G_94PNSnHy9s-58" value="" style="endArrow=classic;html=1;rounded=0;" edge="1" parent="1" target="HFyNzto8G_94PNSnHy9s-59">
          <mxGeometry width="50" height="50" relative="1" as="geometry">
            <mxPoint x="560" y="600" as="sourcePoint" />
            <mxPoint x="560" y="640" as="targetPoint" />
          </mxGeometry>
        </mxCell>
        <mxCell id="HFyNzto8G_94PNSnHy9s-61" style="edgeStyle=orthogonalEdgeStyle;rounded=0;orthogonalLoop=1;jettySize=auto;html=1;exitX=0.5;exitY=1;exitDx=0;exitDy=0;" edge="1" parent="1" source="HFyNzto8G_94PNSnHy9s-64">
          <mxGeometry relative="1" as="geometry">
            <mxPoint x="560" y="760" as="sourcePoint" />
            <mxPoint x="420" y="210" as="targetPoint" />
            <Array as="points">
              <mxPoint x="560" y="740" />
              <mxPoint x="560" y="800" />
              <mxPoint x="780" y="800" />
              <mxPoint x="780" y="210" />
            </Array>
          </mxGeometry>
        </mxCell>
        <mxCell id="HFyNzto8G_94PNSnHy9s-65" style="edgeStyle=orthogonalEdgeStyle;rounded=0;orthogonalLoop=1;jettySize=auto;html=1;entryX=0.5;entryY=0;entryDx=0;entryDy=0;" edge="1" parent="1" source="HFyNzto8G_94PNSnHy9s-59" target="HFyNzto8G_94PNSnHy9s-64">
          <mxGeometry relative="1" as="geometry" />
        </mxCell>
        <mxCell id="HFyNzto8G_94PNSnHy9s-59" value="y = F" style="rounded=0;whiteSpace=wrap;html=1;" vertex="1" parent="1">
          <mxGeometry x="505" y="640" width="110" height="20" as="geometry" />
        </mxCell>
        <mxCell id="HFyNzto8G_94PNSnHy9s-64" value="x , y" style="rounded=0;whiteSpace=wrap;html=1;" vertex="1" parent="1">
          <mxGeometry x="507.5" y="700" width="105" height="20" as="geometry" />
        </mxCell>
        <mxCell id="HFyNzto8G_94PNSnHy9s-68" style="edgeStyle=orthogonalEdgeStyle;rounded=0;orthogonalLoop=1;jettySize=auto;html=1;" edge="1" parent="1" source="HFyNzto8G_94PNSnHy9s-66">
          <mxGeometry relative="1" as="geometry">
            <mxPoint x="463.2777777777778" y="880.0000000000002" as="targetPoint" />
          </mxGeometry>
        </mxCell>
        <mxCell id="HFyNzto8G_94PNSnHy9s-66" value="&lt;div&gt;&amp;nbsp;x +=dx&lt;/div&gt;" style="rounded=0;whiteSpace=wrap;html=1;" vertex="1" parent="1">
          <mxGeometry x="415.5" y="790" width="94.5" height="20" as="geometry" />
        </mxCell>
        <mxCell id="HFyNzto8G_94PNSnHy9s-69" value="кінець" style="rounded=1;whiteSpace=wrap;html=1;" vertex="1" parent="1">
          <mxGeometry x="412" y="880" width="107.25" height="20" as="geometry" />
        </mxCell>
      </root>
    </mxGraphModel>
  </diagram>
</mxfile>
